# xmcd
#
# Track frame offsets: 
#        150
#        10610
#        21519
#        36090
#        50316
#        64239
#        77142
#        89353
#        102181
#        114100
#        127232
#        138572
#        152136
#        165440
#        177841
#        192174
#        204031
#        216164
#        230559
#        243711
#        255156
#        267258
#        278504
#        291330
#        301631
#        313004
#
# Disc length: 4322 seconds
#
# Revision: 1
# Processed by: cddbd v1.5.2PL0 Copyright (c) Steve Scherf et al.
# Submitted via: ExactAudioCopy v1.0b1
#
DISCID=6110e01a
DTITLE=Various Artist - New York Blues and R&B 1947-1955 - Disc A
DYEAR=2007
DGENRE=Blues
TTITLE0=Sticks McGhee - Drinkin' Wine Spo-Dee-O-Dee
TTITLE1=Sticks McGhee - Baby Baby Blues
TTITLE2=Sticks McGhee - Drinkin' Wine Spo-Dee-O-Dee
TTITLE3=Sticks McGhee - Tall Pretty Woman
TTITLE4=Sticks McGhee - Lonesome Road Blues
TTITLE5=Sticks McGhee - Blue Mixture
TTITLE6=Sticks McGhee - I'll Always Remember
TTITLE7=Sticks McGhee - Blue And Brokenhearted
TTITLE8=Sticks McGhee - My Baby's Comin' Back
TTITLE9=Sticks McGhee - Drank Up All The Wine Last Night
TTITLE10=Sticks McGhee - Venus Blues
TTITLE11=Sticks McGhee - Southern Menu
TTITLE12=Sticks McGhee - Let's Do It
TTITLE13=Sticks McGhee - She's Gone Rock Away Blues
TTITLE14=Sticks McGhee - House Warmin' Boogie
TTITLE15=Sticks McGhee - Blue Barrelhouse
TTITLE16=Sticks McGhee - One Monkey Don't Stop The Show
TTITLE17=Sticks McGhee - Tennessee Waltz Blues
TTITLE18=Sticks McGhee - You Gotta Have Something On The Ball
TTITLE19=Sticks McGhee - Oh What A Face
TTITLE20=Sticks McGhee - Wee Wee Hours (Pt. 1)
TTITLE21=Sticks McGhee - Wee Wee Hours (Pt. 2)
TTITLE22=Sticks McGhee - New Found Love
TTITLE23=Sticks McGhee - Meet You In The Morning
TTITLE24=Sticks McGhee - My Little Rose
TTITLE25=Sticks McGhee - No More Reveille
EXTD=
EXTT0=
EXTT1=
EXTT2=
EXTT3=
EXTT4=
EXTT5=
EXTT6=
EXTT7=
EXTT8=
EXTT9=
EXTT10=
EXTT11=
EXTT12=
EXTT13=
EXTT14=
EXTT15=
EXTT16=
EXTT17=
EXTT18=
EXTT19=
EXTT20=
EXTT21=
EXTT22=
EXTT23=
EXTT24=
EXTT25=
PLAYORDER=
